<mxfile host="app.diagrams.net" modified="2022-03-14T03:50:10.159Z" agent="5.0 (Macintosh; Intel Mac OS X 10_15_7) AppleWebKit/537.36 (KHTML, like Gecko) Chrome/99.0.4844.51 Safari/537.36" etag="JMXqwhiYsz62xO-0qnr6" version="17.1.2" type="github">
  <diagram id="2DHRnuZNytbDyupPoHkn" name="Page-1">
    <mxGraphModel dx="967" dy="769" grid="1" gridSize="10" guides="1" tooltips="1" connect="1" arrows="1" fold="1" page="1" pageScale="1" pageWidth="827" pageHeight="1169" math="0" shadow="0">
      <root>
        <mxCell id="0" />
        <mxCell id="1" parent="0" />
        <mxCell id="tCfoMTZ9wKFjFBBJjCjX-1" style="edgeStyle=none;rounded=0;orthogonalLoop=1;jettySize=auto;html=1;entryX=0;entryY=0.5;entryDx=0;entryDy=0;exitX=1;exitY=0.5;exitDx=0;exitDy=0;fontSize=18;startArrow=none;startFill=0;strokeColor=#99FF99;" edge="1" parent="1" source="tCfoMTZ9wKFjFBBJjCjX-2" target="tCfoMTZ9wKFjFBBJjCjX-3">
          <mxGeometry relative="1" as="geometry" />
        </mxCell>
        <mxCell id="tCfoMTZ9wKFjFBBJjCjX-2" value="C" style="rounded=1;whiteSpace=wrap;html=1;fontSize=18;fillColor=#d5e8d4;strokeColor=#82b366;" vertex="1" parent="1">
          <mxGeometry x="107" y="330" width="120" height="60" as="geometry" />
        </mxCell>
        <mxCell id="tCfoMTZ9wKFjFBBJjCjX-3" value="S" style="rounded=1;whiteSpace=wrap;html=1;fontSize=18;fillColor=#dae8fc;strokeColor=#6c8ebf;" vertex="1" parent="1">
          <mxGeometry x="491" y="330" width="120" height="60" as="geometry" />
        </mxCell>
        <mxCell id="tCfoMTZ9wKFjFBBJjCjX-6" value="&lt;font style=&quot;font-size: 14px&quot; color=&quot;#00ff00&quot;&gt;UserService.getUserById()&lt;/font&gt;" style="text;html=1;align=center;verticalAlign=middle;resizable=0;points=[];autosize=1;strokeColor=none;fillColor=none;" vertex="1" parent="1">
          <mxGeometry x="306" y="340" width="180" height="20" as="geometry" />
        </mxCell>
        <mxCell id="tCfoMTZ9wKFjFBBJjCjX-7" style="edgeStyle=orthogonalEdgeStyle;rounded=0;orthogonalLoop=1;jettySize=auto;html=1;exitX=1;exitY=0.5;exitDx=0;exitDy=0;entryX=0.5;entryY=1;entryDx=0;entryDy=0;fontSize=14;startArrow=none;startFill=0;fillColor=#d5e8d4;strokeColor=#00FF00;" edge="1" parent="1" source="tCfoMTZ9wKFjFBBJjCjX-2" target="tCfoMTZ9wKFjFBBJjCjX-2">
          <mxGeometry relative="1" as="geometry">
            <Array as="points">
              <mxPoint x="280" y="360" />
              <mxPoint x="280" y="430" />
              <mxPoint x="167" y="430" />
            </Array>
          </mxGeometry>
        </mxCell>
        <mxCell id="tCfoMTZ9wKFjFBBJjCjX-8" value="&lt;font style=&quot;font-size: 14px&quot; color=&quot;#00ff00&quot;&gt;UserService&lt;/font&gt;&lt;font style=&quot;font-size: 14px&quot; color=&quot;#ff0000&quot;&gt;Fallback&lt;/font&gt;&lt;font style=&quot;font-size: 14px&quot; color=&quot;#00ff00&quot;&gt;.getUserById()&lt;/font&gt;" style="text;html=1;align=center;verticalAlign=middle;resizable=0;points=[];autosize=1;strokeColor=none;fillColor=none;" vertex="1" parent="1">
          <mxGeometry x="115" y="440" width="230" height="20" as="geometry" />
        </mxCell>
        <mxCell id="tCfoMTZ9wKFjFBBJjCjX-9" value="&lt;font color=&quot;#00ff00&quot;&gt;RPC&lt;/font&gt;" style="text;html=1;align=center;verticalAlign=middle;resizable=0;points=[];autosize=1;strokeColor=none;fillColor=none;fontSize=14;fontColor=#FF0000;" vertex="1" parent="1">
          <mxGeometry x="366" y="360" width="50" height="20" as="geometry" />
        </mxCell>
        <mxCell id="tCfoMTZ9wKFjFBBJjCjX-10" value="&lt;font color=&quot;#00ff00&quot;&gt;Local&lt;/font&gt;" style="text;html=1;align=center;verticalAlign=middle;resizable=0;points=[];autosize=1;strokeColor=none;fillColor=none;fontSize=14;fontColor=#FF0000;" vertex="1" parent="1">
          <mxGeometry x="200" y="410" width="50" height="20" as="geometry" />
        </mxCell>
        <mxCell id="tCfoMTZ9wKFjFBBJjCjX-11" value="" style="endArrow=classic;html=1;rounded=0;fontSize=14;fontColor=#FF0000;strokeColor=#FF00FF;" edge="1" parent="1">
          <mxGeometry width="50" height="50" relative="1" as="geometry">
            <mxPoint x="200" y="280" as="sourcePoint" />
            <mxPoint x="280" y="360" as="targetPoint" />
          </mxGeometry>
        </mxCell>
        <mxCell id="tCfoMTZ9wKFjFBBJjCjX-13" value="" style="endArrow=classic;html=1;rounded=0;fontSize=14;fontColor=#FF0000;strokeColor=#FF00FF;" edge="1" parent="1">
          <mxGeometry width="50" height="50" relative="1" as="geometry">
            <mxPoint x="280" y="280" as="sourcePoint" />
            <mxPoint x="280" y="360" as="targetPoint" />
          </mxGeometry>
        </mxCell>
        <mxCell id="tCfoMTZ9wKFjFBBJjCjX-14" value="" style="endArrow=classic;html=1;rounded=0;fontSize=14;fontColor=#FF0000;strokeColor=#FF00FF;" edge="1" parent="1">
          <mxGeometry width="50" height="50" relative="1" as="geometry">
            <mxPoint x="360" y="280" as="sourcePoint" />
            <mxPoint x="280" y="360" as="targetPoint" />
          </mxGeometry>
        </mxCell>
        <mxCell id="tCfoMTZ9wKFjFBBJjCjX-15" value="&lt;font color=&quot;#ff00ff&quot;&gt;熔断&lt;/font&gt;" style="text;html=1;align=center;verticalAlign=middle;resizable=0;points=[];autosize=1;strokeColor=none;fillColor=none;fontSize=14;fontColor=#FF0000;" vertex="1" parent="1">
          <mxGeometry x="170" y="260" width="40" height="20" as="geometry" />
        </mxCell>
        <mxCell id="tCfoMTZ9wKFjFBBJjCjX-16" value="&lt;font color=&quot;#ff00ff&quot;&gt;降级&lt;/font&gt;" style="text;html=1;align=center;verticalAlign=middle;resizable=0;points=[];autosize=1;strokeColor=none;fillColor=none;fontSize=14;fontColor=#FF0000;" vertex="1" parent="1">
          <mxGeometry x="260" y="260" width="40" height="20" as="geometry" />
        </mxCell>
        <mxCell id="tCfoMTZ9wKFjFBBJjCjX-17" value="&lt;font color=&quot;#ff00ff&quot;&gt;异常&lt;/font&gt;" style="text;html=1;align=center;verticalAlign=middle;resizable=0;points=[];autosize=1;strokeColor=none;fillColor=none;fontSize=14;fontColor=#FF0000;" vertex="1" parent="1">
          <mxGeometry x="345" y="260" width="40" height="20" as="geometry" />
        </mxCell>
      </root>
    </mxGraphModel>
  </diagram>
</mxfile>
